<?xml version="1.0" encoding="utf-8"?>
<!-- Generator: Adobe Illustrator 23.0.3, SVG Export Plug-In . SVG Version: 6.00 Build 0)  -->
<svg version="1.1" xmlns="http://www.w3.org/2000/svg" xmlns:xlink="http://www.w3.org/1999/xlink" x="0px" y="0px"
	 viewBox="0 0 1350 1350" style="enable-background:new 0 0 1350 1350;" xml:space="preserve">
<style type="text/css">
	.st0{display:none;}
	.st1{display:inline;}
	.st2{fill:#2B3990;}
	.st3{fill:#FFFFFF;}
</style>
<g id="Layer_2" class="st0">
	<g class="st1">
		<rect x="0" y="1.61" class="st2" width="1348.39" height="1348.39"/>
	</g>
</g>
<g id="Layer_1">
	<g>
		<path class="st3" d="M126.18,207.01c0,0,64.96,136.23,24.38,327.73c-43.34,204.49-54.17,423.88,135.43,563.37
			c58.48,43.03,112.55,74.71,161.99,101.2V125.48C358.49,158.35,254.95,184.89,126.18,207.01z"/>
		<path class="st3" d="M1232.93,534.74c-40.58-191.5,24.38-327.73,24.38-327.73c-128.76-22.12-232.3-48.66-321.8-81.54v1073.84
			c49.44-26.5,103.51-58.18,161.99-101.2C1287.1,958.62,1276.26,739.23,1232.93,534.74z"/>
		<path class="st3" d="M691.74,1.61C617.33,51.07,540.1,91.63,447.98,125.48v1073.84c101.85,54.59,183.94,87.08,243.77,150.69
			c59.82-63.61,141.92-96.1,243.77-150.69V125.48C843.39,91.63,766.15,51.07,691.74,1.61z"/>
	</g>
	<path class="st2" d="M379.66,460.93L273.58,781.3c-6.23,3.04-9.99,6.74-9.99,11.26c0,4.02,3.17,7.36,8.22,10.2
		c6.96,40.74,54.73,72.58,113.64,74.09c58.91-1.51,106.68-33.35,113.64-74.09c5.05-2.84,8.22-6.17,8.22-10.2
		c0-4.52-3.77-8.22-9.99-11.26L391.25,460.93H379.66z M379.68,806.12c-57.56-0.77-95.72-7.96-103.59-13.56
		c7.87-5.6,46.03-12.79,103.59-13.56V806.12z M391.23,778.99c57.56,0.77,95.72,7.96,103.59,13.56
		c-7.87,5.6-46.03,12.79-103.59,13.56V778.99z M379.68,767.51c-21.97,0.32-65.19,1.89-92.29,8.98l92.29-278.72V767.51z
		 M391.23,497.78l92.29,278.72c-27.1-7.09-70.32-8.66-92.29-8.98V497.78z"/>
	<path class="st2" d="M1018.95,460.93l106.08,320.36c6.23,3.04,9.99,6.74,9.99,11.26c0,4.02-3.17,7.36-8.22,10.2
		c-6.96,40.74-54.73,72.58-113.64,74.09c-58.91-1.51-106.68-33.35-113.64-74.09c-5.05-2.84-8.22-6.17-8.22-10.2
		c0-4.52,3.77-8.22,9.99-11.26l106.08-320.36H1018.95z M1018.93,806.12c57.56-0.77,95.72-7.96,103.59-13.56
		c-7.87-5.6-46.03-12.79-103.59-13.56V806.12z M1007.38,778.99c-57.56,0.77-95.72,7.96-103.59,13.56
		c7.87,5.6,46.03,12.79,103.59,13.56V778.99z M1018.93,767.51c21.97,0.32,65.19,1.89,92.29,8.98l-92.29-278.72V767.51z
		 M1007.38,497.78l-92.29,278.72c27.1-7.09,70.32-8.66,92.29-8.98V497.78z"/>
	<path class="st2" d="M511.03,1026.64v-14.68l37.56-15.24l20.63-23.14h96.99c37.65-30.48-16.83-219.71,0.28-226.48
		c17.12-6.77,12.27-17.36,12.27-17.36l-8.15-7.75c-1.72-1.64-2.67-3.91-2.62-6.28c0.05-2.36,1.1-4.6,2.89-6.16l7.89-6.9
		l-14.07-13.73c-19.4-20.13,23.96-159.04,11.79-218.81c-16.54-81.28-255.02-15.8-255.02-15.8c-61.62,0-134.07-30.48-134.07-30.48
		s62.76-17.5,115.24-20.32h243.04c0,0,46.97,2.07,40.89-34.05c-2.89-17.14-22.82-11.48-6.47-34.43c0,0-4.75-9.41,4.94-12.79
		c0,0-6.28-3.2,14.26-46.74c20.54,43.55,14.26,46.74,14.26,46.74c9.7,3.39,4.94,12.79,4.94,12.79c16.35,22.95-3.58,17.29-6.47,34.43
		c-6.09,36.12,40.89,34.05,40.89,34.05h243.04c52.49,2.82,115.25,20.32,115.25,20.32s-72.46,30.48-134.07,30.48
		c0,0-238.48-65.47-255.02,15.8c-12.17,59.77,31.19,198.68,11.79,218.81l-14.07,13.73l7.89,6.9c1.79,1.57,2.84,3.8,2.89,6.16
		c0.05,2.36-0.9,4.64-2.62,6.28l-8.15,7.75c0,0-4.85,10.58,12.27,17.36c17.12,6.77-37.37,196,0.29,226.48h96.99l20.63,23.14
		l37.56,15.24v14.68H511.03z"/>
</g>
</svg>
